<svg width="75" height="80" viewBox="0 0 75 80" fill="none" xmlns="http://www.w3.org/2000/svg">
<path d="M13.5451 17.8445C12.5383 17.1052 11.6093 16.6275 10.9511 15.903C8.94098 13.6884 8.5776 11.0338 9.2838 8.2124C10.318 4.07913 13.6913 1.15716 18.0817 0.550365C21.7579 0.0429909 25.4478 -0.143272 29.1571 0.117271C34.1428 0.468091 39.1366 0.714923 44.1132 1.16173C50.284 1.7171 56.4262 2.51129 62.4667 3.966C66.8045 5.01045 69.787 7.57247 71.588 11.628C72.8118 14.3866 73.5249 17.2686 73.7443 20.2534C73.998 23.7033 74.1511 27.1635 74.2551 30.6214C74.4848 38.264 74.7202 45.9066 74.8265 53.5504C74.8813 57.4894 74.6448 61.4307 74.5888 65.3719C74.5694 66.7192 74.1203 67.7991 73.0712 68.6356C72.621 68.9944 72.2062 69.4047 71.7285 69.7235C66.0286 73.5322 59.9789 76.6336 53.4619 78.8048C50.7365 79.7133 47.9379 80.0298 45.0857 79.9978C40.0279 79.9418 35.017 79.3602 30.0244 78.6094C21.2802 77.293 12.6789 75.2715 4.08322 73.2374C0.378475 72.3609 0.296204 72.0478 0.199072 68.3785C0.0265189 61.8752 0.536178 55.4039 1.29495 48.9554C1.78861 44.7593 2.44111 40.5803 3.08104 36.4036C3.44215 34.0519 4.27749 31.8681 5.64534 29.8889C7.50343 27.2001 9.32952 24.4884 11.1339 21.7641C11.9795 20.4888 12.7417 19.1575 13.5451 17.8445ZM14.7255 18.0822C13.3839 20.2682 12.2378 22.2097 11.0173 24.1044C9.50778 26.4481 7.93881 28.753 6.39383 31.0739C5.58478 32.2898 5.01912 33.6119 4.75744 35.0461C4.2832 37.6447 3.75755 40.2375 3.40444 42.8532C2.18743 51.8671 1.69034 60.9404 1.24582 70.0172C1.20468 70.8639 1.54178 71.2708 2.25028 71.5107C2.61367 71.6341 2.98277 71.7438 3.35645 71.8295C5.69562 72.3643 8.03708 72.89 10.3785 73.4191C20.7831 75.7697 31.2163 77.9375 41.8997 78.6105C45.3748 78.83 48.8373 78.8711 52.1923 77.83C59.7412 75.4874 66.5851 71.7324 73.0609 67.2529C73.6883 66.8186 73.7237 66.293 73.71 65.6405C73.4232 52.8522 73.1684 40.0627 72.8552 27.2743C72.7901 24.6346 72.5787 21.9938 72.3159 19.3643C72.037 16.5715 71.2486 13.9089 69.9881 11.3823C68.434 8.26611 66.0103 6.22976 62.6312 5.4127C60.3469 4.86076 58.05 4.3031 55.7257 3.98999C50.6336 3.30206 45.5256 2.72728 40.4153 2.18105C35.0102 1.60283 29.5833 1.26914 24.1462 1.39141C21.991 1.4394 19.8175 1.61653 17.6955 1.98107C12.936 2.79812 9.90317 6.74056 10.2426 11.4441C10.4471 14.2803 12.3235 16.4607 15.1175 17.0492C16.5265 17.3463 17.9412 17.6331 19.3673 17.8239C26.2705 18.7427 33.1749 19.6592 40.0862 20.5151C46.1073 21.2601 52.1592 21.5561 58.2225 21.2853C59.8841 21.211 61.5456 20.8248 63.174 20.4419C64.3065 20.1768 65.3509 19.5758 65.9897 18.5541C67.265 16.5155 67.4398 14.3009 66.7073 12.0428C66.3085 10.8155 65.3086 10.2213 64.0493 10.1779C62.8609 10.1368 62.0667 10.795 61.5856 11.8463C60.9 13.3444 60.8337 14.9123 61.1388 16.5029C61.1994 16.8206 61.3753 17.1371 61.5673 17.4045C62.0896 18.1336 62.6541 18.2467 63.4448 17.8319C64.9818 17.0263 65.4766 14.7957 64.4276 13.3433C64.3659 13.2576 64.1808 13.2599 63.8928 13.173C63.6311 13.9192 63.3786 14.6403 63.0883 15.471C62.341 14.71 62.5364 13.9855 62.8163 13.2633C63.0369 12.6953 63.4117 12.2291 64.0459 12.1743C64.687 12.1183 65.1029 12.5468 65.4206 13.0622C66.5873 14.9534 65.7692 17.8079 63.7774 18.7953C62.6781 19.3403 61.5353 19.1472 60.8086 18.177C60.4452 17.6914 60.1343 17.0949 60.0235 16.5064C59.7092 14.8265 59.8052 13.1513 60.4954 11.556C61.2131 9.89564 62.6484 8.91631 64.1579 9.02373C66.0423 9.15743 67.4593 10.251 67.9472 12.0486C68.4911 14.0563 68.3586 16.0527 67.6272 17.9965C67.1336 19.3072 66.2411 20.2728 65.0092 20.9527C63.2826 21.9058 61.3902 22.2623 59.475 22.404C53.991 22.8074 48.5173 22.4771 43.0573 21.9663C39.4234 21.6258 35.7941 21.2007 32.1773 20.7048C26.8956 19.9814 21.6276 19.1632 16.355 18.3793C15.7471 18.2925 15.1483 18.161 14.7255 18.0822Z" fill="black"/>
<path d="M73.71 65.6418C73.4231 52.8534 73.1683 40.0639 72.8552 27.2756C72.7901 24.6359 72.5787 21.995 72.3158 19.3656C72.037 16.5727 71.2485 13.9102 69.9881 11.3836C68.6408 8.68217 66.6399 6.79323 63.9304 5.80591C63.2128 6.06188 62.5295 6.4207 61.9204 6.87665C62.1204 6.80808 62.326 6.74637 62.542 6.6938C60.7719 8.38962 59.0201 10.0397 58.3916 12.5538C57.7814 14.9946 58.3482 17.3441 58.9595 19.873C58.7219 19.7118 58.5059 19.5027 58.3105 19.2547C58.4407 20.0055 58.9013 20.7814 59.5046 21.17C60.7365 21.0111 61.9638 20.7254 63.1728 20.442C64.3053 20.1769 65.3497 19.5759 65.9885 18.5543C67.2638 16.5156 67.4386 14.301 66.7061 12.0429C66.3073 10.8156 65.3074 10.2214 64.0481 10.178C62.8597 10.1369 62.0655 10.7951 61.5844 11.8464C60.8988 13.3445 60.8325 14.9124 61.1376 16.5031C61.1982 16.8207 61.3741 17.1373 61.5661 17.4047C62.0884 18.1337 62.6529 18.2469 63.4436 17.832C64.9806 17.0264 65.4754 14.7958 64.4264 13.3434C64.3647 13.2577 64.1796 13.26 63.8916 13.1731C63.6299 13.9193 63.3774 14.6404 63.0871 15.4711C62.3398 14.7101 62.5352 13.9856 62.8151 13.2634C63.0357 12.6955 63.4105 12.2292 64.0447 12.1744C64.6858 12.1184 65.1017 12.5469 65.4194 13.0623C66.5862 14.9535 65.768 17.8081 63.7762 18.7954C62.6769 19.3405 61.5341 19.1473 60.8073 18.1772C60.444 17.6915 60.1331 17.095 60.0223 16.5065C59.708 14.8267 59.804 13.1514 60.4942 11.5561C61.2119 9.89575 62.6471 8.91642 64.1567 9.02384C66.0411 9.15754 67.4581 10.2511 67.946 12.0487C68.49 14.0564 68.3574 16.0528 67.626 17.9966C67.1324 19.3073 66.2399 20.2729 65.008 20.9529C63.2814 21.9059 61.389 22.2624 59.4738 22.4041C59.4258 22.4075 59.3778 22.4098 59.3286 22.4133C59.1904 22.8258 58.9675 23.2006 58.7561 23.5891C59.019 24.2656 58.7024 24.629 58.5219 25.0073C56.946 28.3018 55.4045 31.6123 53.7761 34.8816C51.5958 39.2617 50.5947 43.8898 50.3559 48.7647C50.0131 55.7743 49.4749 62.7735 49.0212 69.7773C48.9058 71.552 48.8018 73.3289 48.6818 75.1036C48.6544 75.5024 48.5801 75.8989 48.4932 76.5583C48.3675 76.428 48.2773 76.3023 48.2087 76.1824C48.1664 77.0051 48.2064 77.8016 48.2716 78.6004C49.5914 78.469 50.901 78.2301 52.1946 77.8279C59.7435 75.4853 66.5873 71.7303 73.0632 67.2507C73.6894 66.8199 73.7248 66.2931 73.71 65.6418ZM60.8382 61.0514C60.0394 62.3084 59.2064 63.5437 58.4008 64.7973C56.2947 68.0689 54.1989 71.3474 52.094 74.6191C51.8974 74.9242 51.6689 75.2076 51.4552 75.5001C51.3284 75.443 51.2015 75.387 51.0747 75.3299C51.213 74.9562 51.3044 74.5551 51.4964 74.2111C54.2378 69.3088 57.4363 64.715 61.0382 60.3452C60.9742 60.5829 60.9639 60.8537 60.8382 61.0514ZM63.6082 57.1993C63.5476 57.6803 63.3454 58.1443 63.2082 58.6151C63.0917 58.5865 62.974 58.5591 62.8574 58.5317C64.2687 46.7158 65.3909 34.8782 65.52 22.6738C66.2033 23.2543 66.1336 23.7491 66.1233 24.1742C66.0468 27.439 66.0251 30.7084 65.8297 33.9674C65.5657 38.3795 65.2137 42.7871 64.8001 47.1877C64.487 50.5314 64.0287 53.8636 63.6082 57.1993ZM72.1775 65.2681C69.9104 63.6568 67.6558 62.0285 65.4046 60.3955C65.2663 60.2949 65.1806 60.1212 65.0709 59.9818C65.1577 59.8744 65.2434 59.7681 65.3303 59.6607C67.8603 61.4548 70.5412 63.0363 72.7741 65.3424C72.5718 65.3218 72.3215 65.3709 72.1775 65.2681Z" fill="#B3804F"/>
<path d="M58.3116 19.2558C57.1311 17.7599 56.7437 14.8311 57.466 12.276C58.1619 9.81566 59.3857 7.74159 61.9215 6.87654C62.5306 6.42059 63.2139 6.06177 63.9315 5.8058C63.5156 5.65381 63.0825 5.52354 62.6322 5.41384C60.3479 4.8619 58.051 4.30425 55.7267 3.99114C50.6347 3.30321 45.5267 2.72841 40.4164 2.18218C35.0112 1.60396 29.5844 1.27029 24.1473 1.39256C21.9921 1.44055 19.8186 1.61769 17.6965 1.98222C12.937 2.79927 9.90421 6.74169 10.2436 11.4452C10.4482 14.2815 12.3245 16.4618 15.1185 17.0503C16.5275 17.3474 17.9422 17.6342 19.3683 17.8251C26.2716 18.7438 33.176 19.6603 40.0872 20.5162C46.1083 21.2613 52.1602 21.5572 58.2236 21.2864C58.651 21.267 59.0795 21.227 59.5069 21.1722C58.9012 20.7825 58.4407 20.0054 58.3116 19.2558Z" fill="#CB915A"/>
<path d="M44.4344 23.036C34.2572 21.4533 24.1886 21.1642 14.4331 18.561C13.2161 20.5528 12.1476 22.3503 11.0174 24.1044C9.50787 26.4482 7.9389 28.7531 6.39392 31.074C5.58487 32.2898 5.01922 33.612 4.75753 35.0461C4.2833 37.6447 3.75764 40.2376 3.40454 42.8533C2.18752 51.8672 1.69043 60.9405 1.24591 70.0172C1.20477 70.864 1.54188 71.2708 2.25037 71.5108C2.61376 71.6342 2.98287 71.7439 3.35654 71.8296C5.69572 72.3644 8.03718 72.8901 10.3786 73.4191C20.7832 75.7697 31.2164 77.9375 41.8998 78.6106C44.0356 78.7454 46.1656 78.8117 48.2694 78.6026C48.2054 77.8038 48.1643 77.0073 48.2066 76.1845C47.9609 75.7526 48.0306 75.3835 48.0454 75.0487C48.1734 72.2638 48.3117 69.479 48.466 66.6953C48.7254 61.9907 48.9916 57.2872 49.267 52.5837C49.419 49.9931 49.5744 47.4025 49.7664 44.8142C49.9972 41.706 50.9183 38.7634 52.237 35.9763C54.0037 32.243 55.928 28.584 57.7987 24.9009C58.0238 24.4575 58.3403 24.0599 58.7129 23.4897C58.7289 23.5239 58.7414 23.5571 58.754 23.5902C58.8009 23.5034 58.8489 23.4177 58.8957 23.332C54.0745 23.7205 49.2899 23.7685 44.4344 23.036ZM43.727 37.1167C40.7754 36.7294 37.8294 36.302 34.8777 35.918C30.5445 35.3547 26.2089 34.813 21.8734 34.2725C17.9184 33.78 13.9623 33.3034 10.0073 32.8109C9.84156 32.7904 9.68614 32.6852 9.52616 32.619C12.2653 31.9413 42.5969 35.7809 44.9898 37.0116C44.3784 37.0676 44.0436 37.159 43.727 37.1167Z" fill="#CB915A"/>
<path d="M58.8979 23.3331C59.0624 23.0337 59.2213 22.7366 59.3287 22.4154C53.8938 22.8028 48.467 22.4749 43.055 21.9675C39.4211 21.627 35.7918 21.2019 32.175 20.7059C26.8933 19.9826 21.6253 19.1644 16.3527 18.3804C15.7482 18.2902 15.1494 18.1599 14.7266 18.0811C14.6272 18.2422 14.5312 18.3999 14.4341 18.5587C24.1885 21.1619 34.2582 21.451 44.4354 23.0337C49.2898 23.7684 54.0744 23.7204 58.8979 23.3331Z" fill="#C28B56"/>
<path d="M58.714 23.4908C59.0499 24.2336 58.7105 24.613 58.5208 25.0095C56.945 28.304 55.4035 31.6145 53.7751 34.8839C51.5947 39.264 50.5937 43.8921 50.3549 48.767C50.012 55.7765 49.4738 62.7757 49.0201 69.7796C48.9047 71.5542 48.8007 73.3312 48.6807 75.1059C48.6533 75.5047 48.579 75.9012 48.4922 76.5606C47.9174 75.9606 48.0271 75.4773 48.0465 75.0487C48.1745 72.2639 48.3128 69.4791 48.4671 66.6954C48.7265 61.9907 48.9927 57.2872 49.2681 52.5837C49.4201 49.9932 49.5755 47.4026 49.7675 44.8143C49.9983 41.706 50.9194 38.7635 52.2381 35.9764C54.0048 32.243 55.9291 28.584 57.7998 24.901C58.0249 24.4576 58.3414 24.0599 58.714 23.4908Z" fill="black"/>
<path d="M9.526 32.6189C12.2651 31.9412 42.5967 35.7808 44.9896 37.0115C44.3783 37.0675 44.0434 37.1589 43.7269 37.1166C40.7752 36.7293 37.8293 36.3019 34.8776 35.9179C30.5443 35.3546 26.2088 34.8129 21.8732 34.2724C17.9182 33.7799 13.9621 33.3034 10.0071 32.8108C9.8414 32.7903 9.68598 32.6851 9.526 32.6189Z" fill="black"/>
<path d="M62.8575 58.5316C64.2688 46.7157 65.391 34.8781 65.5201 22.6737C66.2035 23.2542 66.1338 23.749 66.1235 24.1741C66.0469 27.4389 66.0252 30.7083 65.8298 33.9673C65.5658 38.3794 65.2139 42.787 64.8002 47.1876C64.4859 50.5336 64.0266 53.8658 63.6072 57.2003C63.5466 57.6814 63.3443 58.1453 63.2072 58.6161C63.0918 58.5864 62.9752 58.559 62.8575 58.5316Z" fill="black"/>
<path d="M62.5432 6.69373C60.7731 8.38954 59.0213 10.0397 58.3927 12.5537C57.7825 14.9946 58.3493 17.344 58.9607 19.8729C57.2889 18.7393 56.6249 15.254 57.466 12.2748C58.2156 9.62256 59.5801 7.41708 62.5432 6.69373Z" fill="black"/>
<path d="M51.0735 75.3298C51.2118 74.9561 51.3032 74.555 51.4952 74.211C54.2366 69.3087 57.4351 64.7149 61.037 60.3451C60.973 60.5816 60.9638 60.8525 60.8381 61.0502C60.0394 62.3072 59.2063 63.5425 58.3996 64.796C56.2946 68.0677 54.1977 71.3462 52.0928 74.6178C51.8963 74.9229 51.6677 75.2063 51.454 75.4989C51.3283 75.4429 51.2015 75.3869 51.0735 75.3298Z" fill="black"/>
<path d="M65.3293 59.6616C67.8593 61.4557 70.5402 63.0372 72.7731 65.3433C72.572 65.3216 72.3205 65.3696 72.1777 65.2678C69.9105 63.6566 67.6559 62.0282 65.4047 60.3953C65.2665 60.2947 65.1807 60.121 65.071 59.9816C65.1567 59.8753 65.2436 59.7679 65.3293 59.6616Z" fill="black"/>
</svg>
